<svg width="146" height="128" viewBox="0 0 146 128" fill="none" xmlns="http://www.w3.org/2000/svg">
<g id="Icon">
<g id="Power">
<path id="Vector 16" d="M37.1306 55.6838L39.231 57.885L43.6335 53.6842L41.5331 51.4829L37.1306 55.6838ZM33.0127 55.055L30.148 54.03L33.0127 55.055ZM22.2527 61.0791C20.703 60.4294 18.9201 61.1591 18.2704 62.7088C17.6208 64.2585 18.3504 66.0414 19.9001 66.6911L22.2527 61.0791ZM41.5331 51.4829C40.6052 50.5105 38.7362 49.0331 36.3713 48.9602C35.0575 48.9197 33.7118 49.3274 32.552 50.3055C31.451 51.234 30.6835 52.5333 30.148 54.03L35.8774 56.0801C36.1844 55.2221 36.4526 54.9761 36.475 54.9573C36.4788 54.9541 36.4399 54.9859 36.3608 55.0128C36.2837 55.0389 36.2184 55.0435 36.1839 55.0424C36.1397 55.0411 36.2422 55.0372 36.487 55.1762C36.7212 55.3091 36.956 55.5007 37.1306 55.6838L41.5331 51.4829ZM30.148 54.03C29.3226 56.3365 27.6247 58.4315 25.7844 59.7668C24.8726 60.4283 24.0222 60.8326 23.3411 61.0146C22.6451 61.2005 22.3224 61.1083 22.2527 61.0791L19.9001 66.6911C21.5858 67.3977 23.3695 67.3055 24.9116 66.8936C26.4684 66.4777 27.9878 65.6862 29.3579 64.6921C32.0814 62.7161 34.5963 59.6603 35.8774 56.0801L30.148 54.03Z" fill="#14241C"/>
<path id="Rectangle 1" d="M6.61399 62.9574C6.21603 61.1665 7.48163 59.4334 9.30865 59.2673L17.0357 58.5648C20.2369 58.2738 23.1726 60.3589 23.9522 63.4773C24.8662 67.1331 22.5001 70.8004 18.7926 71.4745L11.7856 72.7485C10.1775 73.0408 8.62576 72.0105 8.2712 70.415L6.61399 62.9574Z" fill="#14241C"/>
<path id="Vector 17" d="M1.7222 65.6916L8.90607 64.1703L10.4274 68.7342L2.82092 70.5597" stroke="#14241C" stroke-width="3.04258" stroke-linecap="round" stroke-linejoin="round"/>
</g>
<g id="Brain">
<g id="Vector 1">
<mask id="path-5-inside-1_2_16" fill="white">
<path d="M41.312 84.1752C41.9373 84.1752 42.5956 84.5062 43.098 84.8528C43.5769 85.1832 43.9393 85.6448 44.2753 86.1198C45.127 87.3234 46.8252 89.6885 47.4658 90.3291C48.9481 91.8114 51.2787 93.2114 53.325 93.6659C54.5914 93.9472 55.9498 94.2311 57.23 94.542C58.7631 94.9143 59.6445 96.8774 61.0118 97.6645C62.526 98.5363 64.4587 98.1679 65.6708 96.9095C66.7425 95.7969 67.8367 94.5736 68.3889 94.0214C68.6787 93.7316 68.9757 93.6835 69.2609 93.7704C70.485 94.1434 71.6535 94.773 72.5518 93.8617C72.8752 93.5337 73.1573 93.1901 73.3398 92.8583C73.7138 92.1782 73.9968 90.8298 74.2966 90.1137C74.5963 89.3977 75.173 89.0961 75.9451 89.1763C77.2289 89.3095 78.7734 89.6367 79.4658 90.3291C80.0431 90.9064 81.4326 91.4837 82.8724 91.9339C85.3647 92.7133 88.1172 93.7699 90.7278 93.7098C92.0788 93.6786 93.6982 93.4646 95.5154 93.0676C96.3019 92.8958 97.1074 92.8139 97.9072 92.7226C100.961 92.3739 103.101 90.7486 104.327 89.312C105.006 88.5156 104.689 87.5244 104.773 86.481C104.825 85.838 105.742 85.4384 106.198 84.9819C107.005 84.1737 107.465 82.3283 106.543 80.483C105.425 78.2477 109.11 78.8479 111.524 78.2015C112.246 78.0082 112.993 77.7447 113.704 77.4519C114.683 77.049 115.698 76.7325 116.733 76.5104C120.952 75.6048 123.643 73.728 125.095 72.1868C125.886 71.3474 125.485 70.1932 125.723 69.0646C125.834 68.5361 126.291 67.8852 126.383 67.3529C128.879 52.7609 123.755 44.9921 120.487 42.6044C120.222 42.411 120.06 42.2922 119.809 42.0819C118.697 41.153 117.16 40.3528 116.191 39.2767C112.048 34.6791 104.683 30.981 100.348 29.2462C99.5602 28.931 98.7304 28.7518 97.8856 28.675L88.4091 27.8135C86.5856 27.6477 84.7047 28.4001 82.9065 28.0549C82.539 27.9844 82.1989 27.8314 81.9273 27.5599C80.8567 26.4893 73.2672 27.2812 68.0696 29.1256C66.6291 29.6368 65.1111 29.9366 63.6207 30.2758C62.5995 30.5081 61.6976 30.8833 60.9151 31.3323C58.1678 32.9084 54.6285 33.9356 52.3889 36.1752L46.235 42.3291C43.7735 44.7906 47.4658 44.7906 42.5427 48.4829C37.6196 52.1752 38.8504 54.6368 37.6196 57.0983C36.3889 59.5599 35.1581 63.2522 35.1581 64.4829C35.1581 65.7137 33.9273 68.1752 33.9273 69.406C33.9273 70.6367 34.2878 70.9972 35.158 71.8675L35.1581 71.8675C36.3889 73.0984 35.1581 75.5599 35.1581 76.7907C35.1581 77.4704 35.6377 78.314 35.9463 78.9197C36.1938 79.4056 36.3889 80.0028 36.3889 80.4829C36.3889 81.7137 40.0812 84.1752 41.312 84.1752Z"/>
</mask>
<path d="M43.098 84.8528L23.5267 113.218L23.5267 113.218L43.098 84.8528ZM35.9463 78.9197L5.23876 94.5609L5.2388 94.561L35.9463 78.9197ZM35.1581 71.8675L10.7357 96.181C10.7537 96.199 10.7717 96.2171 10.7897 96.2352L35.1581 71.8675ZM35.158 71.8675L59.5805 47.5541C59.5625 47.536 59.5444 47.5179 59.5264 47.4998L35.158 71.8675ZM37.6196 57.0983L68.443 72.51L68.443 72.51L37.6196 57.0983ZM42.5427 48.4829L21.8658 20.9137L21.8658 20.9137L42.5427 48.4829ZM46.235 42.3291L21.867 17.9611L21.867 17.9611L46.235 42.3291ZM52.3889 36.1752L28.0209 11.8073L28.0209 11.8073L52.3889 36.1752ZM60.9151 31.3323L43.7664 1.44046L43.7664 1.44046L60.9151 31.3323ZM63.6207 30.2758L55.9743 -3.32679H55.9743L63.6207 30.2758ZM68.0696 29.1256L56.5446 -3.35162L56.5446 -3.35162L68.0696 29.1256ZM81.9273 27.5599L57.5593 51.9278L57.5595 51.928L81.9273 27.5599ZM82.9065 28.0549L76.4094 61.8984H76.4094L82.9065 28.0549ZM88.4091 27.8135L85.2891 62.1335H85.2891L88.4091 27.8135ZM97.8856 28.675L94.7656 62.995L97.8856 28.675ZM100.348 29.2462L87.5443 61.241L87.5443 61.241L100.348 29.2462ZM116.191 39.2767L90.5902 62.3464L90.5902 62.3464L116.191 39.2767ZM120.487 42.6044L140.818 14.7791L140.818 14.779L120.487 42.6044ZM126.383 67.3529L160.35 73.1647L160.35 73.1646L126.383 67.3529ZM125.095 72.1868L150.176 95.82L150.176 95.82L125.095 72.1868ZM116.733 76.5104L123.965 110.205L123.965 110.205L116.733 76.5104ZM113.704 77.4519L126.825 109.318L126.825 109.318L113.704 77.4519ZM111.524 78.2015L102.61 44.9127L102.61 44.9127L111.524 78.2015ZM106.543 80.483L137.366 65.0713L137.366 65.0713L106.543 80.483ZM106.198 84.9819L81.8116 60.632L81.8114 60.6322L106.198 84.9819ZM104.327 89.312L130.546 111.676L130.546 111.676L104.327 89.312ZM97.9072 92.7226L101.816 126.962L101.816 126.962L97.9072 92.7226ZM95.5154 93.0676L102.87 126.735L102.87 126.735L95.5154 93.0676ZM90.7278 93.7098L91.5215 128.162H91.5216L90.7278 93.7098ZM82.8724 91.9339L93.1582 59.0432L93.1582 59.0432L82.8724 91.9339ZM79.4658 90.3291L103.834 65.9611L103.834 65.9611L79.4658 90.3291ZM75.9451 89.1763L72.3875 123.454L72.3877 123.454L75.9451 89.1763ZM73.3398 92.8583L103.536 109.465L103.536 109.465L73.3398 92.8583ZM72.5518 93.8617L48.0102 69.6686L48.0101 69.6687L72.5518 93.8617ZM69.2609 93.7704L79.3051 60.8051L79.3044 60.8049L69.2609 93.7704ZM68.3889 94.0214L44.021 69.6533L44.0209 69.6534L68.3889 94.0214ZM65.6708 96.9095L40.8502 73.0027L40.8502 73.0028L65.6708 96.9095ZM57.23 94.542L49.098 128.03L49.0982 128.03L57.23 94.542ZM53.325 93.6659L60.7977 60.0243L60.7976 60.0243L53.325 93.6659ZM47.4658 90.3291L71.8338 65.9611L71.8338 65.9611L47.4658 90.3291ZM44.2753 86.1198L16.1437 106.025L16.1437 106.025L44.2753 86.1198ZM61.0118 97.6645L43.8178 127.53L43.8178 127.53L61.0118 97.6645ZM74.2966 90.1137L106.085 103.421L106.085 103.421L74.2966 90.1137ZM104.773 86.481L139.123 89.2477L139.123 89.2475L104.773 86.481ZM125.723 69.0646L92.0008 61.965L92.0008 61.9651L125.723 69.0646ZM119.809 42.0819L97.7105 68.5257L97.7106 68.5258L119.809 42.0819ZM62.6693 56.488C60.4517 54.9579 52.6047 49.7137 41.312 49.7137V118.637C35.749 118.637 31.4882 117.223 29.1084 116.241C26.603 115.207 24.7309 114.049 23.5267 113.218L62.6693 56.488ZM41.312 49.7137C46.2255 49.7137 49.8819 50.809 51.2108 51.2325C52.9347 51.7819 54.2255 52.3614 54.9734 52.7215C56.4686 53.4414 57.5837 54.1513 58.4192 54.7481C59.1449 55.2665 60.725 56.4529 62.5395 58.4584C63.439 59.4526 65.0685 61.3825 66.6378 64.1926C68.0117 66.6529 70.8504 72.4421 70.8504 80.4829H1.92734C1.92734 88.8314 4.88143 94.9668 6.46207 97.7973C8.23807 100.978 10.1656 103.302 11.4306 104.7C13.9758 107.513 16.5559 109.546 18.3585 110.833C20.271 112.199 22.5399 113.601 25.0735 114.821C26.0293 115.282 32.5976 118.637 41.312 118.637V49.7137ZM70.8504 80.4829C70.8504 72.3952 68.1469 66.2099 66.6537 63.2784L5.2388 94.561C4.48436 93.0798 3.77728 91.3859 3.20874 89.4598C2.69385 87.7156 1.92734 84.5645 1.92734 80.4829H70.8504ZM69.6196 76.7907C69.6196 79.2918 69.3264 81.191 69.2012 81.9417C69.1251 82.3983 69.0547 82.7526 69.0125 82.9568C68.9701 83.1619 68.9388 83.2992 68.9358 83.3127C68.8075 83.8772 69.3168 81.7677 69.6123 79.9945C69.9283 78.0986 70.5583 73.7198 69.8229 68.3268C69.0154 62.4055 66.4091 54.3828 59.5265 47.4999L10.7897 96.2352C4.52253 89.9678 2.22385 82.7142 1.5318 77.6391C0.911777 73.0922 1.46484 69.6366 1.62699 68.6637C1.76867 67.8136 2.0472 66.6272 1.7266 68.0379C1.64133 68.4131 1.41698 69.4045 1.21593 70.6108C1.02832 71.7365 0.696568 73.9818 0.696568 76.7907H69.6196ZM59.5805 47.5541L59.5805 47.5541L10.7356 96.1809L10.7357 96.181L59.5805 47.5541ZM59.5264 47.4998C59.1043 47.0777 59.6935 47.6502 60.3369 48.3729C61.1224 49.2552 62.7022 51.1278 64.2348 53.8459C67.9076 60.3597 68.3889 66.4095 68.3889 69.406H-0.534203C-0.534203 73.6332 0.127262 80.4786 4.19791 87.698C5.92939 90.7688 7.76247 92.9716 8.86029 94.2047C9.8161 95.2782 10.7767 96.2221 10.7897 96.2351L59.5264 47.4998ZM68.3889 69.406C68.3889 71.9545 68.0873 73.9344 67.8997 74.9797C67.6977 76.1055 67.4788 76.9477 67.3669 77.3581C67.2482 77.7933 67.1566 78.0793 67.1469 78.1097C67.1402 78.1305 67.1459 78.1118 67.2358 77.8422C67.2998 77.6503 67.4479 77.2075 67.5988 76.7347C67.7527 76.2524 67.979 75.5241 68.213 74.6658C68.4403 73.8323 68.7554 72.5862 69.0247 71.0855C69.2797 69.6651 69.6196 67.3391 69.6196 64.4829H0.696568C0.696568 61.9344 0.998096 59.9546 1.18572 58.9092C1.38778 57.7835 1.60664 56.9413 1.71855 56.5309C1.83726 56.0956 1.92889 55.8096 1.93858 55.7793C1.94524 55.7584 1.93952 55.7771 1.84964 56.0468C1.78568 56.2387 1.63755 56.6815 1.48666 57.1543C1.33274 57.6366 1.10649 58.3648 0.872398 59.2232C0.645096 60.0566 0.33009 61.3027 0.0607185 62.8035C-0.194214 64.2238 -0.534203 66.5498 -0.534203 69.406H68.3889ZM69.6196 64.4829C69.6196 66.8865 69.3491 68.6944 69.2352 69.4006C69.0938 70.2777 68.9468 70.9201 68.8691 71.2421C68.7837 71.5961 68.7149 71.8377 68.6816 71.9515C68.6456 72.074 68.6239 72.1394 68.6204 72.1499C68.6185 72.1555 68.6351 72.1082 68.6527 72.0649C68.6789 72.0002 68.6204 72.1551 68.443 72.51L6.79631 41.6866C5.30454 44.6702 4.09577 47.7699 3.23425 50.3545C2.78741 51.695 2.29328 53.3172 1.8702 55.0699C1.62531 56.0845 0.696568 59.8668 0.696568 64.4829H69.6196ZM68.443 72.51C70.798 67.8 71.6642 63.6237 71.9273 62.3839C71.964 62.2106 71.9957 62.0576 72.0171 61.9536C72.0507 61.7909 72.0438 61.8239 72.0634 61.7289C72.0841 61.6286 72.0667 61.7159 72.0319 61.8698C71.957 62.2008 71.7563 63.0499 71.3897 64.1499C71.0099 65.289 70.4863 66.5995 69.7667 67.9931C69.0474 69.3861 68.2324 70.6685 67.3582 71.8247C65.6216 74.1215 63.9904 75.4741 63.2196 76.0522L21.8658 20.9137C18.6335 23.3379 15.31 26.3829 12.3811 30.2566C9.30635 34.3232 7.30008 38.4647 6.00348 42.3545C4.97643 45.4356 4.34318 48.8418 4.50434 48.082C4.50535 48.0773 4.66921 47.2798 4.99565 46.2C5.34738 45.0366 5.90807 43.4631 6.79631 41.6867L68.443 72.51ZM63.2196 76.0522C64.6143 75.0062 66.2047 73.7194 67.8163 72.1801C69.4134 70.6546 71.3621 68.5682 73.2196 65.8748C75.1542 63.0697 76.9849 59.6121 78.2238 55.4973C79.4864 51.3037 79.7735 47.6204 79.7735 44.9445C79.7735 43.7444 79.7136 42.79 79.6907 42.4359C79.6414 41.6734 79.6903 42.4439 79.6982 42.5966C79.75 43.592 79.8727 46.5419 79.1649 50.258C78.4182 54.1777 77.0016 57.716 75.1995 60.7495C73.521 63.5749 71.7597 65.5404 70.603 66.6971L21.867 17.9611C20.095 19.7332 17.9106 22.2372 15.9437 25.5481C14.9419 27.2345 14.0126 29.1029 13.2262 31.1532C12.4345 33.2173 11.8523 35.2969 11.4591 37.3617C10.6743 41.4817 10.797 44.8066 10.868 46.1722C10.8851 46.5026 10.9034 46.7707 10.9103 46.8728C10.9238 47.0704 10.9135 46.9179 10.9116 46.8876C10.9007 46.7192 10.8504 45.9523 10.8504 44.9445C10.8504 43.8814 10.9038 42.4741 11.1157 40.8316C11.33 39.1708 11.6865 37.4227 12.227 35.6273C13.3313 31.9595 14.9313 28.9923 16.4812 26.7449C17.9541 24.6092 19.3643 23.1478 20.2114 22.3387C21.0731 21.5157 21.7019 21.0366 21.8658 20.9137L63.2196 76.0522ZM70.603 66.6971L76.7569 60.5432L28.0209 11.8073L21.867 17.9611L70.603 66.6971ZM78.0638 61.224C76.1066 62.3469 73.8248 63.2963 71.267 63.8783L55.9743 -3.32679C51.3742 -2.28002 47.2887 -0.580263 43.7664 1.44046L78.0638 61.224ZM79.5946 61.6029C79.212 61.7387 79.7278 61.569 80.3118 61.5048C80.6057 61.4725 79.844 61.5887 78.3086 61.5114C77.6054 61.476 75.6865 61.3549 73.1587 60.7453C71.8594 60.4319 69.8041 59.8494 67.3958 58.7551C65.1099 57.7163 61.3134 55.682 57.5593 51.9278L106.295 3.1919C99.2549 -3.84861 91.2984 -5.77914 89.3166 -6.25706C86.1486 -7.02103 83.4205 -7.24158 81.7741 -7.32447C78.352 -7.49675 75.1674 -7.26797 72.7804 -7.00556C68.0026 -6.48033 62.1249 -5.33183 56.5446 -3.35162L79.5946 61.6029ZM57.5595 51.928C63.7056 58.074 70.807 60.8229 76.4094 61.8984L89.4036 -5.78863C94.271 -4.85422 100.692 -2.41122 106.295 3.19175L57.5595 51.928ZM85.2891 62.1335L94.7656 62.995L101.006 -5.64503L91.5291 -6.50653L85.2891 62.1335ZM87.5443 61.241C87.8631 61.3686 88.3875 61.5935 89.0206 61.9008C89.6519 62.2073 90.2631 62.5334 90.7954 62.8483C91.3447 63.1732 91.6381 63.3848 91.7076 63.4376C91.8167 63.5206 91.3449 63.1839 90.5902 62.3464L141.791 16.2069C132.141 5.49772 118.578 -0.577162 113.151 -2.74862L87.5443 61.241ZM100.156 70.4297C97.4505 68.453 95.8074 66.4822 94.8696 65.1373C93.8494 63.6741 93.2747 62.3969 92.9582 61.463C92.2794 59.46 92.8177 59.185 92.4146 61.5412L160.35 73.1646C164.495 48.9381 157.074 26.6569 140.818 14.7791L100.156 70.4297ZM100.014 48.5535C103.42 44.9384 106.983 43.3566 109.501 42.8162L123.965 110.205C134.921 107.853 143.865 102.518 150.176 95.82L100.014 48.5535ZM100.584 45.5858C100.785 45.503 101.038 45.4046 101.348 45.2973C101.653 45.1918 102.076 45.0556 102.61 44.9127L120.437 111.49C122.887 110.834 125.06 110.045 126.825 109.318L100.584 45.5858ZM75.7194 95.8946C73.0416 90.5391 72.097 84.5651 72.832 78.779C73.4888 73.608 75.7809 66.6716 81.8116 60.632L130.584 109.332C143.199 96.6975 144.033 78.4045 137.366 65.0713L75.7194 95.8946ZM78.1075 66.9478C81.1048 63.4339 86.3996 59.351 93.9981 58.4835L101.816 126.962C115.523 125.397 125.098 118.063 130.546 111.676L78.1075 66.9478ZM88.161 59.4C88.0622 59.4216 88.1387 59.4005 88.3822 59.368C88.6106 59.3375 89.1431 59.2756 89.934 59.2574L91.5216 128.162C95.6706 128.067 99.5626 127.458 102.87 126.735L88.161 59.4ZM93.1582 59.0432C93.2894 59.0842 94.013 59.3093 95.1168 59.8115C95.6821 60.0686 96.6972 60.5565 97.9511 61.3193C99.0507 61.9883 101.346 63.4736 103.834 65.9611L55.0978 114.697C59.949 119.548 65.1661 121.906 66.5745 122.547C68.8773 123.595 71.0156 124.333 72.5866 124.825L93.1582 59.0432ZM103.834 65.9611C97.27 59.3974 89.9157 57.1435 87.5929 56.4647C84.298 55.5019 81.3838 55.0941 79.5026 54.8988L72.3877 123.454C71.7903 123.392 70.2901 123.214 68.2615 122.621C67.2111 122.314 65.509 121.749 63.4853 120.745C61.5643 119.792 58.3539 117.953 55.0979 114.697L103.834 65.9611ZM43.1437 76.2513C44.2042 74.323 45.2636 72.8717 46.0155 71.9253C46.792 70.9478 47.492 70.1943 48.0102 69.6686L97.0934 118.055C98.5272 116.6 101.214 113.686 103.536 109.465L43.1437 76.2513ZM79.3044 60.8049C74.1295 59.2282 67.4926 58.5241 60.2835 60.3688C53.1223 62.2013 47.7208 65.9536 44.021 69.6533L92.7567 118.39C89.3468 121.799 84.2387 125.383 77.3698 127.14C70.4529 128.91 64.1071 128.226 59.2174 126.736L79.3044 60.8049ZM44.0209 69.6534C43.4884 70.1859 43.0171 70.6855 42.763 70.956C42.4753 71.2624 42.1727 71.5889 41.9549 71.8237C41.4425 72.3763 41.1218 72.7207 40.8502 73.0027L90.4914 120.816C91.2915 119.986 92.0537 119.162 92.4944 118.687C92.7531 118.408 92.8946 118.255 93.0008 118.142C93.1407 117.993 93.0132 118.133 92.7569 118.389L44.0209 69.6534ZM65.362 61.0536C63.6495 60.6378 61.4686 60.1733 60.7977 60.0243L45.8523 127.307C47.7141 127.721 48.2501 127.824 49.098 128.03L65.362 61.0536ZM71.8338 65.9611C72.0741 66.2015 72.2794 66.4144 72.445 66.5896C72.6118 66.7661 72.7558 66.9226 72.8741 67.0532C73.1059 67.3091 73.2862 67.5174 73.4044 67.656C73.5261 67.7989 73.6189 67.911 73.6779 67.9831C73.7383 68.0569 73.7805 68.1098 73.8022 68.1371C73.842 68.1873 73.8422 68.1885 73.7962 68.1283C73.7533 68.0721 73.6894 67.9874 73.6039 67.8724C73.4297 67.6381 73.223 67.355 73.0012 67.0473C72.7833 66.7448 72.5767 66.4546 72.407 66.2148L16.1437 106.025C16.6318 106.715 17.4481 107.859 18.2955 108.999C18.4584 109.218 20.6277 112.227 23.0978 114.697L71.8338 65.9611ZM78.2058 67.7987C81.6571 69.7857 83.8243 71.922 84.4964 72.5979C84.7072 72.8099 84.8692 72.9802 84.9685 73.0861C85.0194 73.1404 85.059 73.1832 85.0846 73.2109C85.11 73.2385 85.1253 73.2554 85.1264 73.2566C85.3824 73.5385 84.7047 72.79 84.5833 72.6576C84.0365 72.0613 82.1421 69.9823 79.4393 67.879C76.5709 65.647 71.8613 62.6318 65.3618 61.0536L49.0982 128.03C43.3653 126.638 39.3407 124.008 37.1115 122.273C35.9895 121.4 35.1592 120.626 34.6598 120.139C34.1667 119.657 33.8348 119.294 33.7828 119.238C33.7514 119.203 33.742 119.193 33.8055 119.263C33.8414 119.303 33.9807 119.458 34.1108 119.601C34.3773 119.894 34.9292 120.498 35.6229 121.196C36.3257 121.903 37.3484 122.883 38.6459 123.949C39.9495 125.02 41.6746 126.296 43.8178 127.53L78.2058 67.7987ZM40.8502 73.0028C49.4655 64.058 64.6229 59.979 78.2057 67.7987L43.8178 127.53C60.4291 137.094 79.452 132.278 90.4915 120.816L40.8502 73.0028ZM48.0101 69.6687C52.0925 65.5275 57.4167 62.3548 63.529 60.8377C69.1954 59.4312 73.9027 59.8533 76.5289 60.2779C79.0242 60.6814 80.834 61.3015 80.9301 61.3331C82.0728 61.7089 79.9273 60.9946 79.3051 60.8051L59.2167 126.736C59.2066 126.733 57.6662 126.237 59.4003 126.807C60.0878 127.033 62.4754 127.824 65.5281 128.317C68.7117 128.832 73.9561 129.264 80.1325 127.731C86.7548 126.087 92.562 122.652 97.0936 118.055L48.0101 69.6687ZM42.5078 76.8068C42.3063 77.2883 42.1364 77.7221 41.9976 78.0899C41.8582 78.4595 41.7385 78.7935 41.639 79.0792C41.4448 79.6369 41.2915 80.1154 41.1896 80.4404C41.0873 80.7667 41.001 81.0538 40.9536 81.2115C40.9329 81.2806 40.9014 81.386 40.892 81.4172C40.8763 81.4695 40.8687 81.4948 40.8644 81.5091C40.854 81.5435 40.8768 81.4673 40.9195 81.3343C40.9617 81.203 41.0482 80.9386 41.1738 80.5891C41.2964 80.248 41.4979 79.7091 41.7815 79.0447C41.9265 78.7048 42.1069 78.2998 42.3246 77.8449C42.5414 77.392 42.8128 76.8528 43.1436 76.2514L103.536 109.465C104.272 108.127 104.808 106.954 105.171 106.104C105.542 105.233 105.83 104.472 106.036 103.897C106.428 102.807 106.714 101.865 106.828 101.49C106.882 101.309 106.96 101.048 106.968 101.023C106.996 100.929 106.985 100.969 106.957 101.058C106.955 101.065 106.646 102.081 106.085 103.421L42.5078 76.8068ZM79.5028 54.8989C73.8676 54.314 66.0495 54.8553 58.1791 59.2375C50.0742 63.7503 45.1272 70.5495 42.5078 76.8069L106.085 103.421C103.766 108.962 99.2569 115.252 91.7083 119.455C84.3943 123.528 77.2506 123.958 72.3875 123.454L79.5028 54.8989ZM89.9342 59.2574C91.7182 59.2163 93.1261 59.3728 94.0199 59.5111C94.9085 59.6486 95.4944 59.8012 95.6459 59.8416C95.7859 59.879 95.7449 59.8731 95.2844 59.7258C95.0434 59.6487 94.8305 59.5792 94.4448 59.4542C94.1077 59.3449 93.65 59.197 93.1582 59.0432L72.5866 124.825C73.1659 125.006 73.0562 124.979 74.2839 125.372C75.122 125.64 76.3997 126.04 77.8656 126.432C80.6097 127.164 85.539 128.3 91.5215 128.162L89.9342 59.2574ZM70.4228 83.7142C70.2401 85.9832 70.3046 87.8441 70.3162 88.2451C70.3444 89.2225 70.2923 87.9719 70.3314 86.8206C70.3806 85.3687 70.5789 82.3492 71.6949 78.6722C72.893 74.7246 74.9564 70.6421 78.1075 66.9479L130.546 111.676C138.068 102.858 139.072 93.3672 139.215 89.1577C139.27 87.5286 139.197 85.7848 139.211 86.2579C139.211 86.2656 139.213 86.353 139.216 86.4806C139.218 86.6113 139.22 86.8109 139.219 87.0589C139.216 87.5483 139.199 88.3091 139.123 89.2477L70.4228 83.7142ZM81.8114 60.6322C82.8623 59.5797 83.7659 58.8195 84.2828 58.3998C84.8045 57.9761 85.2083 57.6778 85.2837 57.6219C85.8996 57.166 84.5602 58.1389 83.6285 58.8944C82.5591 59.7617 79.8922 61.9885 77.2969 65.4797C74.5322 69.1987 71.0943 75.3762 70.4228 83.7145L139.123 89.2475C138.478 97.2643 135.174 103.151 132.61 106.6C130.215 109.821 127.816 111.799 127.039 112.429C126.4 112.947 125.379 113.694 126.296 113.015C126.505 112.86 128.488 111.43 130.584 109.332L81.8114 60.6322ZM102.61 44.9127C104.914 44.2959 106.672 44.1702 105.998 44.2405C105.885 44.2523 105.853 44.2551 105.588 44.2821C105.39 44.3022 105.066 44.3354 104.702 44.3768C104.051 44.4508 102.721 44.6101 101.145 44.9157C99.6853 45.199 96.9054 45.8114 93.6785 47.1629C90.5693 48.4651 85.0362 51.2784 80.1581 57.0669C74.6435 63.6107 71.8143 71.7814 71.8763 80.0286C71.931 87.3025 74.1995 92.8548 75.7194 95.8947L137.366 65.0713C138.607 67.5523 140.746 72.6344 140.797 79.5107C140.856 87.3604 138.151 95.2063 132.862 101.482C128.21 107.002 123.005 109.604 120.304 110.736C117.484 111.916 115.191 112.399 114.272 112.577C112.877 112.848 111.271 112.987 113.142 112.792C113.802 112.723 116.927 112.43 120.437 111.49L102.61 44.9127ZM109.501 42.8162C106.427 43.476 103.442 44.4089 100.584 45.5858L126.825 109.318C125.923 109.689 124.97 109.989 123.965 110.205L109.501 42.8162ZM92.0008 61.9651C91.3202 65.1977 91.2203 67.8432 91.1893 68.8976C91.1807 69.1884 91.1764 69.4318 91.1741 69.5771C91.173 69.6503 91.1721 69.7158 91.1716 69.7519C91.171 69.7981 91.1709 69.8061 91.1707 69.8147C91.1697 69.8844 91.1736 69.4664 91.2037 68.9012C91.2598 67.849 91.4596 64.8182 92.6465 61.0784C93.9541 56.9584 96.2788 52.5173 100.014 48.5535L150.176 95.82C158.986 86.4708 159.853 75.8767 160.029 72.567C160.074 71.7346 160.083 71.0448 160.086 70.8395C160.092 70.4464 160.088 70.7323 160.083 70.9235C160.068 71.4177 160.007 73.4958 159.445 76.1641L92.0008 61.9651ZM92.4146 61.5411C92.561 60.6855 92.7274 59.9148 92.893 59.2401C93.0587 58.565 93.2296 57.9614 93.3901 57.4387C93.5509 56.9155 93.7079 56.4516 93.8497 56.0553C93.9916 55.6587 94.1248 55.3111 94.2404 55.0208C94.4657 54.4552 94.658 54.0218 94.7605 53.7952C94.8147 53.6752 94.8571 53.5838 94.8795 53.5357C94.9006 53.4904 94.9136 53.463 94.9029 53.4857C94.8933 53.5061 94.8964 53.4994 94.8788 53.5366C94.8674 53.5608 94.8504 53.5968 94.831 53.6379C94.7931 53.7184 94.7339 53.8446 94.6646 53.9948C94.5318 54.2827 94.3082 54.7747 94.0547 55.3823C93.9246 55.6942 93.7768 56.0601 93.62 56.471C93.4633 56.8816 93.2906 57.3557 93.113 57.8844C92.9355 58.4127 92.7457 59.0172 92.5581 59.6884C92.3707 60.359 92.1783 61.1216 92.0008 61.965L159.445 76.1641C159.123 77.6939 158.746 78.9451 158.446 79.8378C158.144 80.7379 157.859 81.4535 157.666 81.9158C157.472 82.3798 157.314 82.7262 157.249 82.8674C157.197 82.9786 157.141 83.0975 157.218 82.9347C157.258 82.85 157.402 82.5459 157.566 82.183C157.735 81.8095 157.99 81.2301 158.273 80.5204C158.554 79.8137 158.917 78.8438 159.275 77.6765C159.632 76.5159 160.039 74.985 160.35 73.1647L92.4146 61.5411ZM97.7106 68.5258C98.8738 69.4978 99.7977 70.1681 100.156 70.4298L140.818 14.779C140.743 14.7245 140.754 14.7324 140.781 14.7526C140.82 14.7812 140.919 14.8541 141.05 14.9548C141.188 15.0601 141.34 15.1784 141.501 15.3068C141.659 15.4334 141.796 15.5458 141.907 15.6381L97.7106 68.5258ZM90.5902 62.3464C92.3953 64.3495 94.1138 65.8432 95.3369 66.8325C96.5551 67.8178 97.6299 68.5789 98.1939 68.9734C98.4797 69.1733 98.762 69.3673 98.8804 69.4489C99.0441 69.5616 99.065 69.5766 99.0528 69.5679C99.0312 69.5527 98.8889 69.4523 98.6777 69.2937C98.4657 69.1345 98.1273 68.874 97.7105 68.5257L141.907 15.6382C141.212 15.0576 140.582 14.569 140.07 14.184C139.558 13.7996 139.106 13.4759 138.769 13.2382C138.597 13.1171 138.441 13.0086 138.312 12.919C138.185 12.8308 138.067 12.7495 137.982 12.6909C137.884 12.6235 137.833 12.5886 137.777 12.55C137.728 12.516 137.706 12.5006 137.699 12.4956C137.68 12.4824 137.773 12.5467 137.926 12.66C138.082 12.7746 138.346 12.9737 138.681 13.2442C139.015 13.5147 139.461 13.8903 139.976 14.3665C140.491 14.8427 141.114 15.4553 141.791 16.2069L90.5902 62.3464ZM94.7656 62.995C92.8421 62.8201 90.3331 62.357 87.5443 61.241L113.151 -2.74862C108.787 -4.49498 104.619 -5.31657 101.006 -5.64503L94.7656 62.995ZM60.7976 60.0243C64.046 60.7458 66.2567 61.8686 67.4374 62.5515C68.6929 63.2776 70.2051 64.3324 71.8338 65.9611L23.0978 114.697C28.429 120.028 36.4017 125.208 45.8524 127.308L60.7976 60.0243ZM76.7569 60.5432C75.0636 62.2365 73.5426 63.2881 72.6906 63.8266C72.2496 64.1054 71.9119 64.2939 71.7296 64.3924C71.5491 64.4899 71.466 64.5287 71.5385 64.4934C71.6195 64.454 71.7668 64.3839 72.0907 64.2339C72.2711 64.1502 72.3973 64.0921 72.6373 63.9811C72.8447 63.8852 73.0954 63.769 73.3622 63.644C73.8888 63.3972 74.5823 63.0674 75.3489 62.6815C76.1193 62.2936 77.048 61.8068 78.0638 61.224L43.7664 1.44046C44.3432 1.10953 44.6422 0.987041 44.1154 1.23392C44.0726 1.25395 42.3885 2.02809 41.3847 2.51645C39.1409 3.60814 33.3734 6.4547 28.0209 11.8073L76.7569 60.5432ZM71.267 63.8783C71.3567 63.8579 75.6915 62.988 79.5946 61.6029L56.5446 -3.35162C56.9766 -3.50489 57.3086 -3.60495 57.501 -3.65999C57.6904 -3.71414 57.7835 -3.73565 57.727 -3.72193C57.6609 -3.70588 57.5273 -3.6745 57.2165 -3.60496C57.1423 -3.58835 57.0639 -3.57087 56.9744 -3.55096C56.8922 -3.53267 56.7841 -3.50862 56.6867 -3.48692C56.4843 -3.44184 56.2375 -3.38667 55.9743 -3.32679L71.267 63.8783ZM93.9982 58.4835C93.9355 58.4906 91.0635 58.766 88.1609 59.4L102.87 126.735C102.017 126.922 101.408 127.004 101.268 127.023C101.19 127.034 101.172 127.035 101.273 127.023C101.323 127.018 101.383 127.011 101.478 127C101.558 126.991 101.691 126.976 101.816 126.962L93.9982 58.4835ZM66.6538 63.2785C66.5493 63.0734 66.4389 62.8608 66.427 62.8379C66.3894 62.7652 66.4131 62.8105 66.4521 62.8876C66.5208 63.0236 66.8013 63.5801 67.1355 64.3637C67.4584 65.1209 68.0108 66.5029 68.5049 68.3304C68.9824 70.0966 69.6196 73.0506 69.6196 76.7907H0.696568C0.696568 80.8706 1.39373 84.185 1.97082 86.3194C2.5645 88.5152 3.25607 90.2734 3.73747 91.4022C4.50595 93.2041 5.6589 95.3857 5.23876 94.5609L66.6538 63.2785ZM76.4094 61.8984C80.2109 62.6282 83.4685 62.6659 85.7281 62.5701C87.8776 62.479 89.6755 62.2317 90.2453 62.155C91.2716 62.0169 90.6522 62.1045 90.1481 62.1503C89.4246 62.2159 87.6395 62.3472 85.2891 62.1335L91.5291 -6.50653C88.2669 -6.80309 85.5629 -6.63997 83.9177 -6.49063C83.0756 -6.4142 82.3646 -6.32639 81.911 -6.2676C81.6806 -6.23773 81.4751 -6.20985 81.3394 -6.19134C81.1673 -6.16788 81.1288 -6.16251 81.0513 -6.15207C80.9244 -6.135 81.0752 -6.1567 81.3348 -6.18415C81.6086 -6.21309 82.1274 -6.26223 82.8088 -6.29111C84.153 -6.34809 86.5012 -6.34583 89.4036 -5.78864L76.4094 61.8984ZM23.5267 113.218C20.9429 111.435 19.1287 109.613 18.0073 108.354C16.9334 107.148 16.2457 106.169 16.1437 106.025L72.407 66.2148C71.7569 65.296 68.4795 60.4969 62.6693 56.488L23.5267 113.218Z" fill="#F03790" mask="url(#path-5-inside-1_2_16)"/>
</g>
<g id="Cells">
<path id="Vector 11" d="M94.2351 58.4616L106.543 62.1539L111.466 68.3077M111.466 68.3077C109.825 71.1795 105.804 76.4308 102.85 74.4616C103.671 75.2821 106.543 75.2 111.466 68.3077ZM111.466 68.3077L118.85 67.0769" stroke="#5D0B32" stroke-width="1.23077" stroke-linecap="round" stroke-linejoin="round"/>
<path id="Vector 12" d="M77.0043 30.1539C77.0043 31.7949 78.7274 34.5847 85.6197 32.6154C83.1582 32.2052 79.712 33.6001 85.6197 42.4616" stroke="#5D0B32" stroke-width="1.23077" stroke-linecap="round" stroke-linejoin="round"/>
<path id="Vector 13" d="M94.2351 53.5385C96.6966 52.3077 100.881 48.1231 97.9274 41.2308" stroke="#5D0B32" stroke-width="1.23077" stroke-linecap="round" stroke-linejoin="round"/>
<path id="Vector 14" d="M109.004 49.3321C109.415 46.4603 111.712 42.9321 117.62 51.7936" stroke="#5D0B32" stroke-width="1.23077" stroke-linecap="round" stroke-linejoin="round"/>
<path id="Vector 9" d="M52.389 51.077C53.6198 55.5898 56.8198 62.4001 59.7736 53.5386" stroke="#5D0B32" stroke-width="1.23077" stroke-linecap="round" stroke-linejoin="round"/>
<path id="Vector 10" d="M62.2351 36.3077C65.9274 36.718 73.5582 38.0308 74.5428 40C75.5274 41.9692 77.4146 45.7436 78.2351 47.3846M78.2351 47.3846H85.6197M78.2351 47.3846C78.6453 49.0257 78.9736 52.5539 77.0043 53.5385" stroke="#5D0B32" stroke-width="1.23077" stroke-linecap="round" stroke-linejoin="round"/>
<path id="Vector 5" d="M109.004 58.4616L111.466 59.6923H116.389" stroke="#5D0B32" stroke-width="1.23077" stroke-linecap="round" stroke-linejoin="round"/>
<path id="Vector 6" d="M54.8505 70.7692L58.5428 73.2308L59.7736 78.1538" stroke="#5D0B32" stroke-width="1.23077" stroke-linecap="round" stroke-linejoin="round"/>
<path id="Vector 7" d="M67.1582 56L68.389 65.8462C70.03 69.1282 73.8044 75.6923 75.7736 75.6923C78.2351 75.6923 88.0813 76.9231 89.3121 78.1538M89.3121 78.1538C90.2967 79.1385 89.3121 76.9231 97.9274 74.4615L89.3121 78.1538ZM89.3121 78.1538C88.0813 81.8462 86.112 88.7385 88.0813 86.7692" stroke="#5D0B32" stroke-width="1.23077" stroke-linecap="round" stroke-linejoin="round"/>
<path id="Vector 4" d="M40.0812 69.5385L42.5428 68.3077H46.2351V65.8462" stroke="#5D0B32" stroke-width="1.23077" stroke-linecap="round" stroke-linejoin="round"/>
<path id="Vector 2" d="M47.4659 83.077H52.389C54.4403 84.718 58.789 87.5078 59.7736 85.5385" stroke="#5D0B32" stroke-width="1.23077" stroke-linecap="round" stroke-linejoin="round"/>
<path id="Vector 15" d="M80.6967 62.1539C81.9275 64.6154 85.6198 69.2924 90.5428 68.3077" stroke="#5D0B32" stroke-width="1.23077" stroke-linecap="round" stroke-linejoin="round"/>
</g>
</g>
</g>
</svg>
