<svg width="49" height="49" viewBox="0 0 49 49" fill="none" xmlns="http://www.w3.org/2000/svg">
<g id="Cog Icon">
<path id="Vector" d="M34.8969 21.314C35.1729 22.184 34.4649 22.998 33.5529 22.998H26.6229C26.3595 22.9982 26.1006 22.9289 25.8724 22.7973C25.6442 22.6656 25.4547 22.4762 25.3229 22.248L21.8589 16.248C21.4009 15.456 21.7529 14.434 22.6449 14.24C25.2013 13.6811 27.8743 14.0966 30.1405 15.405C32.4066 16.7134 34.1028 18.8206 34.8969 21.314ZM17.1289 17.428C17.7429 16.752 18.8049 16.958 19.2609 17.748L22.7249 23.748C22.8566 23.976 22.9259 24.2347 22.9259 24.498C22.9259 24.7613 22.8566 25.02 22.7249 25.248L19.2609 31.248C18.8029 32.042 17.7409 32.248 17.1269 31.57C15.3622 29.6387 14.3853 27.1161 14.3889 24.5C14.3854 21.8829 15.363 19.3595 17.1289 17.428ZM22.6449 34.76C21.7509 34.564 21.3989 33.544 21.8569 32.752L25.3229 26.748C25.4547 26.5198 25.6442 26.3304 25.8724 26.1987C26.1006 26.0671 26.3595 25.9978 26.6229 25.998H33.5529C34.4669 25.998 35.1729 26.812 34.8969 27.682C34.1036 30.1761 32.4077 32.2842 30.1415 33.5934C27.8752 34.9027 25.2018 35.3187 22.6449 34.76Z" fill="white"/>
<path id="Vector_2" fill-rule="evenodd" clip-rule="evenodd" d="M42.8889 26C43.2867 26 43.6682 25.842 43.9495 25.5607C44.2308 25.2794 44.3889 24.8978 44.3889 24.5C44.3889 24.1022 44.2308 23.7206 43.9495 23.4393C43.6682 23.158 43.2867 23 42.8889 23H41.3229C41.2411 22.0837 41.0825 21.1758 40.8489 20.286L42.3169 19.752C42.502 19.6846 42.6721 19.5815 42.8174 19.4484C42.9627 19.3153 43.0803 19.1548 43.1636 18.9763C43.2469 18.7977 43.2942 18.6045 43.3029 18.4076C43.3115 18.2108 43.2812 18.0142 43.2139 17.829C43.1465 17.6438 43.0433 17.4738 42.9102 17.3285C42.7771 17.1832 42.6167 17.0655 42.4381 16.9822C42.2596 16.8989 42.0664 16.8516 41.8695 16.843C41.6727 16.8344 41.476 16.8646 41.2909 16.932L39.8209 17.468C39.4288 16.6363 38.9679 15.8388 38.4429 15.084L39.6429 14.078C39.7971 13.9525 39.9249 13.7975 40.0187 13.6222C40.1125 13.4468 40.1705 13.2546 40.1893 13.0566C40.2081 12.8586 40.1874 12.6589 40.1283 12.469C40.0693 12.2791 39.973 12.1028 39.8452 11.9505C39.7174 11.7981 39.5605 11.6727 39.3838 11.5815C39.207 11.4904 39.0139 11.4352 38.8157 11.4194C38.6175 11.4035 38.4181 11.4272 38.2291 11.4891C38.0401 11.551 37.8653 11.6499 37.7149 11.78L36.5149 12.788C35.8624 12.1407 35.1573 11.5486 34.4069 11.018L35.1889 9.662C35.2889 9.49134 35.3542 9.30258 35.381 9.10659C35.4078 8.91059 35.3956 8.71123 35.345 8.51998C35.2945 8.32873 35.2066 8.14937 35.0864 7.99223C34.9662 7.83509 34.8162 7.70327 34.6449 7.60435C34.4735 7.50544 34.2844 7.44139 34.0882 7.4159C33.892 7.3904 33.6927 7.40395 33.5018 7.45579C33.3109 7.50762 33.1322 7.5967 32.9758 7.7179C32.8195 7.8391 32.6886 7.99003 32.5909 8.162L31.8109 9.514C30.9755 9.12846 30.1091 8.81402 29.2209 8.574L29.4929 7.034C29.5533 6.64597 29.4592 6.2497 29.2307 5.93031C29.0022 5.61091 28.6576 5.39386 28.2708 5.32578C27.884 5.2577 27.486 5.34401 27.1622 5.56617C26.8383 5.78834 26.6145 6.12865 26.5389 6.514L26.2669 8.054C25.3504 7.97827 24.4293 7.97827 23.5129 8.054L23.2409 6.514C23.2102 6.31691 23.1405 6.12793 23.0358 5.95811C22.9312 5.78828 22.7937 5.64104 22.6315 5.52498C22.4693 5.40892 22.2855 5.32639 22.091 5.2822C21.8965 5.23801 21.6951 5.23307 21.4987 5.26765C21.3023 5.30223 21.1147 5.37564 20.9469 5.48359C20.7792 5.59155 20.6347 5.73187 20.5219 5.89635C20.409 6.06082 20.3301 6.24616 20.2898 6.4415C20.2494 6.63684 20.2484 6.83827 20.2869 7.034L20.5589 8.574C19.6629 8.816 18.7989 9.134 17.9709 9.514L17.1909 8.162C17.0924 7.99128 16.9612 7.84163 16.8049 7.7216C16.6486 7.60157 16.4701 7.5135 16.2798 7.46243C16.0894 7.41136 15.8909 7.39828 15.6954 7.42394C15.5 7.44961 15.3116 7.51351 15.1409 7.612C14.9702 7.71049 14.8205 7.84164 14.7005 7.99797C14.5804 8.15429 14.4924 8.33273 14.4413 8.52309C14.3902 8.71345 14.3771 8.91201 14.4028 9.10742C14.4285 9.30283 14.4924 9.49128 14.5909 9.662L15.3749 11.018C14.6244 11.5486 13.9193 12.1406 13.2669 12.788L12.0669 11.78C11.7621 11.5241 11.3682 11.3997 10.9718 11.4342C10.5753 11.4687 10.2088 11.6593 9.95287 11.964C9.69694 12.2687 9.57254 12.6627 9.60705 13.0591C9.64155 13.4556 9.83214 13.8221 10.1369 14.078L11.3369 15.084C10.8119 15.8388 10.3509 16.6363 9.95887 17.468L8.48887 16.932C8.11491 16.7959 7.70223 16.814 7.34159 16.9822C6.98096 17.1505 6.70193 17.455 6.56587 17.829C6.42981 18.203 6.44788 18.6156 6.6161 18.9763C6.78432 19.3369 7.08891 19.6159 7.46287 19.752L8.93287 20.286C8.69866 21.1751 8.53944 22.0823 8.45687 22.998H6.89087C6.49304 22.998 6.11151 23.156 5.83021 23.4373C5.5489 23.7186 5.39087 24.1002 5.39087 24.498C5.39087 24.8958 5.5489 25.2774 5.83021 25.5587C6.11151 25.84 6.49304 25.998 6.89087 25.998H8.45687C8.54087 26.926 8.70087 27.832 8.93287 28.71L7.46287 29.246C7.08891 29.3821 6.78432 29.6611 6.6161 30.0217C6.44788 30.3824 6.42981 30.795 6.56587 31.169C6.70193 31.543 6.98096 31.8475 7.34159 32.0158C7.70223 32.184 8.11491 32.2021 8.48887 32.066L9.95887 31.53C10.3529 32.364 10.8149 33.162 11.3389 33.912L10.1389 34.92C9.83733 35.1764 9.64938 35.5417 9.61599 35.9361C9.5826 36.3306 9.70647 36.7222 9.96061 37.0257C10.2147 37.3292 10.5785 37.5199 10.9727 37.5563C11.3669 37.5927 11.7595 37.4718 12.0649 37.22L13.2669 36.21C13.9189 36.856 14.6249 37.45 15.3749 37.98L14.5909 39.34C14.392 39.6848 14.3382 40.0945 14.4413 40.4789C14.5444 40.8634 14.7961 41.1911 15.1409 41.39C15.4857 41.5889 15.8953 41.6427 16.2798 41.5396C16.6642 41.4364 16.992 41.1848 17.1909 40.84L17.9709 39.482C18.7989 39.866 19.6649 40.182 20.5589 40.424L20.2869 41.964C20.2231 42.3534 20.3152 42.7522 20.5435 43.0741C20.7717 43.396 21.1175 43.615 21.5061 43.6837C21.8947 43.7524 22.2946 43.6651 22.6194 43.441C22.9441 43.2168 23.1674 42.8737 23.2409 42.486L23.5149 40.942C24.4306 41.0179 25.3511 41.0179 26.2669 40.942L26.5389 42.486C26.5696 42.6831 26.6393 42.8721 26.7439 43.0419C26.8486 43.2117 26.986 43.359 27.1482 43.475C27.3105 43.5911 27.4942 43.6736 27.6887 43.7178C27.8832 43.762 28.0846 43.7669 28.281 43.7324C28.4775 43.6978 28.6651 43.6244 28.8328 43.5164C29.0005 43.4085 29.145 43.2681 29.2579 43.1037C29.3707 42.9392 29.4496 42.7538 29.49 42.5585C29.5303 42.3632 29.5313 42.1617 29.4929 41.966L29.2209 40.424C30.1084 40.1839 30.9741 39.8694 31.8089 39.484L32.5909 40.838C32.7898 41.1828 33.1175 41.4344 33.502 41.5376C33.8864 41.6407 34.2961 41.5869 34.6409 41.388C34.9857 41.1891 35.2373 40.8614 35.3404 40.4769C35.4436 40.0925 35.3898 39.6828 35.1909 39.338L34.4049 37.98C35.1554 37.4494 35.8605 36.8574 36.5129 36.21L37.7149 37.218C38.0199 37.4737 38.4139 37.5977 38.8104 37.5628C39.2068 37.5279 39.5732 37.337 39.8289 37.032C40.0845 36.727 40.2086 36.3329 40.1737 35.9365C40.1388 35.54 39.9479 35.1737 39.6429 34.918L38.4429 33.912C38.9649 33.162 39.4269 32.364 39.8229 31.53L41.2929 32.064C41.478 32.1312 41.6746 32.1613 41.8714 32.1526C42.0682 32.1439 42.2614 32.0964 42.4399 32.0131C42.6183 31.9297 42.7786 31.8119 42.9116 31.6666C43.0446 31.5213 43.1476 31.3512 43.2149 31.166C43.2821 30.9808 43.3122 30.7842 43.3035 30.5874C43.2947 30.3906 43.2473 30.1975 43.1639 30.019C43.0805 29.8405 42.9628 29.6802 42.8175 29.5473C42.6721 29.4143 42.502 29.3112 42.3169 29.244L40.8489 28.71C41.0789 27.832 41.2389 26.926 41.3229 25.998H42.8909L42.8889 26ZM37.5749 19.88C37.0305 18.3814 36.2247 16.9912 35.1949 15.774C34.1677 14.562 32.9357 13.5398 31.5549 12.754C29.5237 11.5985 27.2257 10.9939 24.8889 11C24.0672 10.9992 23.2472 11.0728 22.4389 11.22C20.9251 11.4978 19.4705 12.0343 18.1389 12.806C15.423 14.3791 13.3366 16.8452 12.2349 19.784C12.2154 19.8509 12.1913 19.9164 12.1629 19.98C11.6493 21.4315 11.3882 22.9603 11.3909 24.5C11.3883 26.8671 12.0091 29.1932 13.1909 31.2443C14.3726 33.2953 16.0737 34.999 18.1229 36.184L18.1409 36.194C19.4903 36.9755 20.9658 37.5156 22.5009 37.79L22.5449 37.796C24.1118 38.0707 25.7148 38.068 27.2809 37.788C28.8349 37.5111 30.3278 36.962 31.6909 36.166C33.0261 35.3848 34.218 34.381 35.2149 33.198L35.2329 33.178L35.2509 33.158C36.2762 31.9314 37.0753 30.5323 37.6109 29.026C38.1169 27.612 38.3909 26.088 38.3909 24.5C38.3908 22.9248 38.1146 21.3618 37.5749 19.882V19.88Z" fill="white"/>
</g>
</svg>
