# Blender 3.6.7
# www.blender.org
mtllib interior.mtl
o Hallway
v -8.000000 -3.000000 9.000000
v -8.000000 3.000000 9.000000
v -8.000000 -3.000000 -9.000000
v -8.000000 3.000000 -9.000000
v 8.000000 -3.000000 9.000000
v 8.000000 3.000000 9.000000
v 8.000000 -3.000000 -9.000000
v 8.000000 3.000000 -9.000000
v -7.995381 -2.998268 8.994804
v -7.995381 2.998268 8.994804
v -7.995381 -2.998268 -8.994804
v -7.995381 2.998268 -8.994804
v 7.995381 -2.998268 8.994804
v 7.995381 2.998268 8.994804
v 7.995381 -2.998268 -8.994804
v 7.995381 2.998268 -8.994804
vn -1.0000 -0.0000 -0.0000
vn -0.0000 -0.0000 -1.0000
vn 1.0000 -0.0000 -0.0000
vn -0.0000 -0.0000 1.0000
vn -0.0000 -1.0000 -0.0000
vn -0.0000 1.0000 -0.0000
vt 0.375000 0.000000
vt 0.625000 0.000000
vt 0.625000 0.250000
vt 0.375000 0.250000
vt 0.625000 0.500000
vt 0.375000 0.500000
vt 0.625000 0.750000
vt 0.375000 0.750000
vt 0.625000 1.000000
vt 0.375000 1.000000
vt 0.125000 0.500000
vt 0.125000 0.750000
vt 0.875000 0.500000
vt 0.875000 0.750000
s 0
f 1/1/1 2/2/1 4/3/1 3/4/1
f 3/4/2 4/3/2 8/5/2 7/6/2
f 7/6/3 8/5/3 6/7/3 5/8/3
f 5/8/4 6/7/4 2/9/4 1/10/4
f 3/11/5 7/6/5 5/8/5 1/12/5
f 8/5/6 4/13/6 2/14/6 6/7/6
f 9/1/3 11/4/3 12/3/3 10/2/3
f 11/4/4 15/6/4 16/5/4 12/3/4
f 15/6/1 13/8/1 14/7/1 16/5/1
f 13/8/2 9/10/2 10/9/2 14/7/2
f 11/11/6 9/12/6 13/8/6 15/6/6
f 16/5/5 14/7/5 10/14/5 12/13/5
o Cube
v -6.000000 -3.000000 7.000000
v -6.000000 3.000000 7.000000
v -6.000000 -3.000000 -7.000000
v -6.000000 3.000000 -7.000000
v 6.000000 -3.000000 7.000000
v 6.000000 3.000000 7.000000
v 6.000000 -3.000000 -7.000000
v 6.000000 3.000000 -7.000000
v -0.768807 -2.999966 7.000000
v -0.768807 -0.189902 7.000000
v 0.583663 -0.189902 7.000000
v 0.583663 -2.999966 7.000000
v -5.399996 -3.000000 6.300002
v -5.400000 3.000000 6.300000
v -5.400000 -3.000000 -6.300000
v -5.400000 3.000000 -6.300000
v 5.399996 -3.000000 6.300002
v 5.400000 3.000000 6.300000
v 5.400000 -3.000000 -6.300000
v 5.400000 3.000000 -6.300000
v -0.768807 -2.999966 6.300000
v -0.768807 -0.189902 6.300000
v 0.583663 -0.189902 6.300000
v 0.583663 -2.999966 6.300000
vn -1.0000 -0.0000 -0.0000
vn -0.0000 -0.0000 -1.0000
vn 1.0000 -0.0000 -0.0000
vn -0.0000 -0.0000 1.0000
vn -0.0000 -0.0479 -0.9988
vn -0.0000 -1.0000 -0.0000
vt 0.375000 0.000000
vt 0.625000 0.000000
vt 0.625000 0.250000
vt 0.375000 0.250000
vt 0.625000 0.500000
vt 0.375000 0.500000
vt 0.625000 0.750000
vt 0.375000 0.750000
vt 0.491257 0.883743
vt 0.508743 0.883743
vt 0.625000 1.000000
vt 0.375000 1.000000
vt 0.508743 0.866257
vt 0.491257 0.866257
s 0
f 17/15/7 18/16/7 20/17/7 19/18/7
f 19/18/8 20/17/8 24/19/8 23/20/8
f 23/20/9 24/19/9 22/21/9 21/22/9
f 25/23/10 26/24/10 18/25/10 17/26/10
f 27/27/10 28/28/10 21/22/10 22/21/10
f 28/28/10 25/23/10 17/26/10 21/22/10
f 26/24/10 27/27/10 22/21/10 18/25/10
f 29/15/9 31/18/9 32/17/9 30/16/9
f 31/18/10 35/20/10 36/19/10 32/17/10
f 35/20/7 33/22/7 34/21/7 36/19/7
f 37/23/8 29/26/8 30/25/8 38/24/8
f 39/27/8 34/21/8 33/22/8 40/28/8
f 40/28/11 33/22/11 29/26/11 37/23/11
f 38/24/8 30/25/8 34/21/8 39/27/8
f 27/27/12 26/24/12 38/24/12 39/27/12
f 26/24/9 25/23/9 37/23/9 38/24/9
f 28/28/7 27/27/7 39/27/7 40/28/7
