# Blender 3.6.8
# www.blender.org
mtllib interior2.mtl
o Walls1
v 17.219673 0.000000 -21.618477
v 5.509094 -0.191496 17.219673
v -17.219673 0.000000 -21.618477
v -5.509094 -0.191496 17.219673
v 17.219673 0.000000 -5.047940
v 17.219673 0.000000 13.879930
v -17.219673 0.000000 13.879930
v -17.219673 0.000000 -5.047940
v 17.219673 0.000000 -23.234570
v -17.219673 0.000000 -23.234570
v 17.219673 29.867336 -21.618477
v 17.219673 29.867336 17.219673
v -17.219673 29.867336 -21.618477
v -17.219673 29.867336 17.219673
v 17.219673 29.867336 -5.047940
v 17.219673 29.867336 13.879930
v -17.219673 29.867336 13.879930
v -17.219673 29.867336 -5.047940
v 17.219673 29.867336 -23.234570
v -17.219673 29.867336 -23.234570
v 17.219673 0.000000 17.219673
v -17.219673 0.000000 17.219673
v 5.509094 6.254683 17.219673
v -5.509094 6.254683 17.219673
v 5.509094 6.254683 21.095261
v -5.509094 6.254683 21.095261
v 5.509094 -0.191496 21.095261
v -5.509094 -0.191496 21.095261
v -5.739891 -0.000003 -15.118477
v 5.739891 -0.000003 -15.118477
v -5.739891 -0.000003 -11.547939
v 5.739891 -0.000003 -11.547939
v -5.739891 0.000000 -23.234570
v 5.739891 0.000000 -23.234570
v -5.739891 29.867336 -23.234570
v 5.739891 29.867336 -23.234570
v -5.739891 0.000000 -21.618477
v -5.739891 0.000000 -5.047940
v 5.739891 0.000000 -21.618477
v 5.739891 0.000000 -5.047940
vn 1.0000 -0.0000 -0.0000
vn -1.0000 -0.0000 -0.0000
vn -0.0000 -0.0000 1.0000
vn -0.0000 -1.0000 -0.0000
vn -0.0000 -0.0000 -1.0000
vt 0.235154 0.026295
vt 0.235154 0.175319
vt 0.000000 0.175319
vt 0.000000 0.026295
vt 0.470308 0.012724
vt 0.470308 0.143188
vt 0.235154 0.143188
vt 0.235154 0.012724
vt 0.470308 0.292213
vt 0.470308 0.318508
vt 0.235154 0.318508
vt 0.235154 0.292213
vt 0.718057 0.499275
vt 0.718057 0.589658
vt 0.482903 0.589658
vt 0.482903 0.499275
vt 0.235154 0.305784
vt 0.235154 0.318508
vt 0.000000 0.318508
vt 0.000000 0.305784
vt 0.235154 0.000000
vt 0.000000 0.000000
vt 0.470308 -0.000000
vt 0.235154 0.000000
vt 0.642072 0.810823
vt 0.642072 0.897573
vt 0.611559 0.897573
vt 0.611559 0.810823
vt 0.745859 0.410708
vt 0.745859 0.497458
vt 0.744352 0.589658
vt 0.744352 0.318508
vt 0.656217 0.092201
vt 0.656217 0.178950
vt 0.470308 0.271151
vt 0.470308 0.000000
vt 0.706969 0.092201
vt 0.705462 -0.000000
vt 0.706969 0.178950
vt 0.705462 0.271151
vt 0.611559 0.810823
vt 0.611559 0.897573
vt 0.560806 0.897573
vt 0.560806 0.810823
vt 0.672586 0.810823
vt 0.672586 0.861576
vt 0.642072 0.861576
vt 0.642072 0.810823
vt 0.672586 0.861576
vt 0.672586 0.810823
vt 0.703099 0.810823
vt 0.703099 0.861576
vt 0.718057 0.318508
vt 0.718057 0.408891
vt 0.482903 0.408891
vt 0.482903 0.318508
vt 0.745859 0.408017
vt 0.745859 0.379906
vt 0.745859 0.328729
vt 0.745859 0.459194
vt 0.745859 0.538482
vt 0.745859 0.510370
vt 0.745859 0.459194
vt 0.745859 0.589658
s 0
usemtl Material
f 7/1/1 8/2/1 18/3/1 17/4/1
f 1/5/2 5/6/2 15/7/2 11/8/2
f 6/9/2 21/10/2 12/11/2 16/12/2
f 34/13/3 9/14/3 19/15/3 36/16/3
f 5/6/2 6/9/2 16/12/2 15/7/2
f 3/17/1 10/18/1 20/19/1 13/20/1
f 8/2/1 3/17/1 13/20/1 18/3/1
f 22/21/1 7/1/1 17/4/1 14/22/1
f 9/23/2 1/5/2 11/8/2 19/24/2
f 24/25/4 23/26/4 25/27/4 26/28/4
f 4/29/3 2/30/3 21/31/3 22/32/3
f 23/33/5 24/34/5 14/35/5 12/36/5
f 2/37/5 23/33/5 12/36/5 21/38/5
f 24/34/5 4/39/5 22/40/5 14/35/5
f 27/41/5 28/42/5 26/43/5 25/44/5
f 23/45/2 2/46/2 27/47/2 25/48/2
f 4/49/1 24/50/1 26/51/1 28/52/1
f 10/53/3 33/54/3 35/55/3 20/56/3
f 33/54/3 34/13/3 36/16/3 35/55/3
f 29/57/2 31/58/2 38/59/2 37/60/2
f 32/61/1 30/62/1 39/63/1 40/64/1
o Walls2
v 11.024031 6.769125 -5.108987
v 11.024031 -0.403926 -5.108987
v 3.850980 2.731925 -12.650269
v 3.850980 -0.009268 -12.650269
v 3.850980 2.731925 -10.997593
v 3.850980 -0.009268 -10.997593
v 11.024031 6.769125 -5.431388
v 11.024031 -0.403926 -5.431388
v 4.159650 2.731925 -12.650277
v 4.159650 -0.009268 -12.650277
v 4.092682 2.731925 -11.037145
v 4.092682 -0.009268 -11.037145
v 3.850980 6.769125 -23.221857
v 3.850980 -0.403926 -23.221857
v 4.173381 6.769125 -23.221857
v 4.173381 -0.403926 -23.221857
v 17.491407 6.769125 -5.108987
v 17.491407 -0.403926 -5.108987
v 17.491407 6.769125 -5.431388
v 17.491407 -0.403926 -5.431388
v 3.850980 6.769125 -18.444664
v 3.850980 -0.403926 -18.444664
v 3.850980 6.769125 -5.108987
v 3.850980 -0.403926 -5.108987
v 4.173381 6.769125 -18.444664
v 4.173381 -0.403926 -18.444664
v 4.078951 6.769125 -5.336959
v 4.078951 -0.403926 -5.336959
v -11.024031 6.769125 -5.108987
v -11.024031 -0.403926 -5.108987
v -3.850980 2.731925 -12.650269
v -3.850980 -0.009268 -12.650269
v -3.850980 2.731925 -10.997593
v -3.850980 -0.009268 -10.997593
v -11.024031 6.769125 -5.431388
v -11.024031 -0.403926 -5.431388
v -4.159650 2.731925 -12.650277
v -4.159650 -0.009268 -12.650277
v -4.092682 2.731925 -11.037145
v -4.092682 -0.009268 -11.037145
v -3.850980 6.769125 -23.221857
v -3.850980 -0.403926 -23.221857
v -4.173381 6.769125 -23.221857
v -4.173381 -0.403926 -23.221857
v -17.491407 6.769125 -5.108987
v -17.491407 -0.403926 -5.108987
v -17.491407 6.769125 -5.431388
v -17.491407 -0.403926 -5.431388
v -3.850980 6.769125 -18.444664
v -3.850980 -0.403926 -18.444664
v -3.850980 6.769125 -5.108987
v -3.850980 -0.403926 -5.108987
v -4.173381 6.769125 -18.444664
v -4.173381 -0.403926 -18.444664
v -4.078951 6.769125 -5.336959
v -4.078951 -0.403926 -5.336959
vn -0.0000 -0.0000 1.0000
vn -0.0136 -0.0000 -0.9999
vn -0.0000 1.0000 -0.0000
vn -0.0000 -1.0000 -0.0000
vn -1.0000 -0.0000 -0.0000
vn -0.0000 -0.0000 -1.0000
vn 1.0000 -0.0000 -0.0000
vn 1.0000 -0.0000 0.0024
vn 0.9999 0.0001 0.0110
vn 0.9999 -0.0013 0.0110
vn -0.1615 -0.0000 -0.9869
vn 0.0136 -0.0000 -0.9999
vn -1.0000 -0.0000 0.0024
vn -0.9999 0.0001 0.0110
vn -0.9999 -0.0013 0.0110
vn 0.1615 -0.0000 -0.9869
vt 0.972885 0.895628
vt 0.885299 0.895628
vt 0.885299 0.808042
vt 0.972885 0.808042
vt 0.473220 0.889792
vt 0.473220 0.974595
vt 0.385635 0.974595
vt 0.385635 0.889792
vt 0.298049 0.589658
vt 0.385635 0.589658
vt 0.385635 0.593595
vt 0.300832 0.592442
vt 0.543573 0.589658
vt 0.631159 0.589658
vt 0.628375 0.592442
vt 0.543573 0.593595
vt 0.464604 0.589658
vt 0.464604 0.593595
vt 0.797713 0.752491
vt 0.885299 0.752491
vt 0.885299 0.810823
vt 0.797713 0.810823
vt 0.298049 0.752492
vt 0.301985 0.752492
vt 0.631159 0.752492
vt 0.627222 0.752492
vt 0.888545 0.308750
vt 0.888545 0.221165
vt 0.892481 0.221165
vt 0.892481 0.308750
vt 0.972885 0.647989
vt 0.885299 0.647989
vt 0.885299 0.589658
vt 0.972885 0.589658
vt 0.631159 0.810823
vt 0.627222 0.810823
vt 0.301985 0.810823
vt 0.298049 0.810823
vt 0.884608 0.221164
vt 0.884608 0.308750
vt 0.880672 0.308750
vt 0.880672 0.221164
vt 0.464604 0.593595
vt 0.464604 0.589658
vt 0.972885 0.974597
vt 0.885299 0.974597
vt 0.385635 0.810823
vt 0.473220 0.810823
vt 0.802532 0.681740
vt 0.836003 0.681740
vt 0.836003 0.661560
vt 0.885299 0.589658
vt 0.802532 0.661560
vt 0.797714 0.589658
vt 0.923589 0.718741
vt 0.890118 0.718741
vt 0.923589 0.738440
vt 0.972885 0.808042
vt 0.890118 0.738440
vt 0.885299 0.808042
vt 0.477846 0.271151
vt 0.480797 0.271151
vt 0.480797 0.304622
vt 0.477846 0.304622
vt 0.487517 0.291330
vt 0.483748 0.291331
vt 0.484566 0.271634
vt 0.487517 0.271151
vt 0.474077 0.304622
vt 0.470308 0.304622
vt 0.470308 0.271151
vt 0.474077 0.271151
vt 0.385635 0.889793
vt 0.385635 0.977378
vt 0.298049 0.977378
vt 0.298049 0.889793
vt 0.560806 0.895625
vt 0.473220 0.895625
vt 0.473220 0.810823
vt 0.560806 0.810823
vt 0.797713 0.589658
vt 0.794930 0.592442
vt 0.710128 0.593595
vt 0.710128 0.589658
vt 0.833445 0.318508
vt 0.833445 0.322444
vt 0.748643 0.321291
vt 0.745859 0.318508
vt 0.631159 0.593595
vt 0.937744 0.162833
vt 0.937744 0.221164
vt 0.850158 0.221164
vt 0.850158 0.162833
vt 0.797713 0.752492
vt 0.793777 0.752492
vt 0.749796 0.481341
vt 0.745859 0.481341
vt 0.896418 0.308750
vt 0.896418 0.221165
vt 0.912414 0.376839
vt 0.912414 0.318508
vt 1.000000 0.318508
vt 1.000000 0.376839
vt 0.749796 0.539673
vt 0.745859 0.539673
vt 0.797713 0.810823
vt 0.793777 0.810823
vt 0.884608 0.221164
vt 0.888545 0.221164
vt 0.888545 0.308750
vt 0.884608 0.308750
vt 0.912414 0.318508
vt 0.912414 0.322444
vt 0.298049 0.810823
vt 0.385635 0.810823
vt 0.560806 0.974595
vt 0.473220 0.974595
vt 0.932925 0.092082
vt 0.899454 0.092082
vt 0.850158 0.000000
vt 0.899454 0.071902
vt 0.937744 0.000000
vt 0.932925 0.071902
vt 0.961710 0.447591
vt 0.995181 0.447591
vt 0.961710 0.467290
vt 0.912414 0.536891
vt 0.995181 0.467290
vt 1.000000 0.536891
vt 0.483748 0.271151
vt 0.483748 0.304622
vt 0.480797 0.304622
vt 0.480797 0.271151
vt 0.483748 0.311510
vt 0.486700 0.291813
vt 0.487517 0.311510
vt 0.477846 0.271151
vt 0.477846 0.304622
s 0
usemtl Material
f 42/65/6 41/66/6 63/67/6 64/68/6
f 48/69/7 68/70/7 67/71/7 47/72/7
f 63/73/8 41/74/8 47/75/8 67/76/8
f 42/77/9 64/78/9 68/79/9 48/80/9
f 47/75/8 41/74/8 57/81/8 59/82/8
f 62/83/10 61/84/10 53/85/10 54/86/10
f 61/87/8 63/73/8 67/76/8 65/88/8
f 64/78/9 62/89/9 66/90/9 68/79/9
f 54/91/11 53/92/11 55/93/11 56/94/11
f 65/95/12 66/96/12 56/97/12 55/98/12
f 66/90/9 62/89/9 54/99/9 56/100/9
f 61/87/8 65/88/8 55/101/8 53/102/8
f 57/103/12 58/104/12 60/105/12 59/106/12
f 42/77/9 48/80/9 60/107/9 58/108/9
f 41/66/6 42/65/6 58/109/6 57/110/6
f 48/69/11 47/72/11 59/111/11 60/112/11
f 44/113/10 43/114/10 61/84/10 62/83/10
f 43/114/10 45/115/10 63/116/10 61/84/10
f 45/115/10 46/117/10 64/118/10 63/116/10
f 46/117/10 44/113/10 62/83/10 64/118/10
f 49/119/13 50/120/13 66/96/13 65/95/13
f 51/121/14 49/119/14 65/95/14 67/122/14
f 52/123/13 51/121/13 67/122/13 68/124/13
f 50/120/15 52/123/15 68/124/15 66/96/15
f 45/125/16 51/126/16 52/127/16 46/128/16
f 43/129/9 49/130/9 51/131/9 45/132/9
f 44/133/6 50/134/6 49/135/6 43/136/6
f 70/137/6 92/138/6 91/139/6 69/140/6
f 76/141/17 75/142/17 95/143/17 96/144/17
f 91/145/8 95/146/8 75/147/8 69/148/8
f 70/149/9 76/150/9 96/151/9 92/152/9
f 75/147/8 87/153/8 85/78/8 69/148/8
f 90/154/12 82/155/12 81/156/12 89/157/12
f 89/158/8 93/159/8 95/146/8 91/145/8
f 92/152/9 96/151/9 94/160/9 90/161/9
f 82/162/11 84/94/11 83/93/11 81/163/11
f 93/164/10 83/165/10 84/166/10 94/167/10
f 94/160/9 84/168/9 82/169/9 90/161/9
f 89/158/8 81/170/8 83/171/8 93/159/8
f 85/172/10 87/173/10 88/174/10 86/175/10
f 70/149/9 86/176/9 88/177/9 76/150/9
f 69/140/6 85/178/6 86/179/6 70/137/6
f 76/141/11 88/180/11 87/181/11 75/142/11
f 72/182/12 90/154/12 89/157/12 71/183/12
f 71/183/12 89/157/12 91/184/12 73/185/12
f 73/185/12 91/184/12 92/186/12 74/187/12
f 74/187/12 92/186/12 90/154/12 72/182/12
f 77/188/18 93/164/18 94/167/18 78/189/18
f 79/190/19 95/191/19 93/164/19 77/188/19
f 80/192/18 96/193/18 95/191/18 79/190/18
f 78/189/20 94/167/20 96/193/20 80/192/20
f 73/194/21 74/195/21 80/196/21 79/197/21
f 71/198/9 73/130/9 79/199/9 77/200/9
f 72/133/6 71/136/6 77/201/6 78/202/6
o Ground
v 17.219673 0.000000 -21.618477
v 5.509094 -0.191496 17.219673
v -17.219673 0.000000 -21.618477
v -5.509094 -0.191496 17.219673
v 17.219673 0.000000 -5.047940
v 17.219673 0.000000 13.879930
v -17.219673 0.000000 13.879930
v -17.219673 0.000000 -5.047940
v 17.219673 -30.667204 13.879930
v 17.219673 -30.667204 -5.047940
v -17.219673 -30.667204 13.879930
v -17.219673 -30.667204 -5.047940
v 17.219673 0.000000 -23.234570
v -17.219673 0.000000 -23.234570
v 17.219673 0.000000 17.219673
v -17.219673 0.000000 17.219673
v 5.509094 -0.191496 21.095261
v -5.509094 -0.191496 21.095261
v -5.739891 -30.667204 -5.047940
v 5.739891 -30.667204 -5.047940
v -5.739891 0.000000 -23.234570
v 5.739891 0.000000 -23.234570
v -5.739891 0.000000 -21.618477
v -5.739891 0.000000 -5.047940
v 5.739891 0.000000 -21.618477
v 5.739891 0.000000 -5.047940
vn -0.0000 1.0000 -0.0000
vn -0.0000 -0.0000 1.0000
vn -0.0000 -0.0000 -1.0000
vn 1.0000 -0.0000 -0.0000
vn -1.0000 -0.0000 -0.0000
vt 0.744352 0.318508
vt 0.744352 0.589658
vt 0.718057 0.589658
vt 0.718057 0.318508
vt 0.837434 0.180767
vt 0.837434 0.271151
vt 0.706969 0.271151
vt 0.706969 0.180767
vt -0.000000 0.408891
vt -0.000000 0.318508
vt 0.241451 0.318508
vt 0.241451 0.408891
vt 0.241451 0.589658
vt 0.482903 0.318508
vt 0.482903 0.589658
vt 0.000000 0.589658
vt 0.149024 0.589658
vt 0.149024 0.831110
vt 0.000000 0.831110
vt 0.149024 0.589658
vt 0.298049 0.589658
vt 0.298049 0.831110
vt 0.149024 0.831110
vt 0.837434 0.090384
vt 0.837434 -0.000000
vt 0.850158 -0.000000
vt 0.850158 0.090384
vt 0.880672 0.221164
vt 0.880672 0.307914
vt 0.850158 0.307914
vt 0.850158 0.221164
vt 0.850158 0.180767
vt 0.850158 0.271151
vt 0.000000 0.589658
vt 0.000000 0.499275
vt 0.241451 0.499275
vt 0.241451 0.589658
vt 0.706969 0.090384
vt 0.706969 -0.000000
s 0
usemtl Material
f 102/203/22 103/204/22 112/205/22 111/206/22
f 119/207/22 99/208/22 104/209/22 120/210/22
f 120/211/23 104/212/23 108/213/23 115/214/23
f 103/215/24 102/213/24 105/216/24 107/217/24
f 104/218/25 103/219/25 107/220/25 108/221/25
f 102/222/26 101/223/26 106/224/26 105/225/26
f 121/226/22 97/227/22 109/228/22 118/229/22
f 98/230/22 100/231/22 114/232/22 113/233/22
f 99/208/22 119/207/22 117/234/22 110/235/22
f 119/207/22 121/226/22 118/229/22 117/234/22
f 101/236/23 122/237/23 116/238/23 106/239/23
f 122/237/23 120/211/23 115/214/23 116/238/23
f 97/227/22 121/226/22 122/240/22 101/241/22
f 121/226/22 119/207/22 120/210/22 122/240/22
