# Blender 3.6.8
# www.blender.org
mtllib interior.mtl
o Hallway
v -8.000000 -3.000000 9.000000
v -8.000000 -3.000000 -9.000000
v 8.000000 -3.000000 9.000000
v 8.000000 3.000000 9.000000
v -7.995381 2.998268 8.994804
v -7.995381 2.998268 -8.994804
v 7.995381 -2.998268 -8.994804
v 7.995381 2.998268 -8.994804
vn 1.0000 -0.0008 -0.0000
vn -0.0002 -0.0004 1.0000
vn -1.0000 -0.0000 0.0003
vn 0.0002 -0.0004 -1.0000
vn -0.0001 1.0000 -0.0000
vn 0.0001 -1.0000 -0.0000
vt 0.000000 0.333333
vt 1.000000 0.333333
vt 1.000000 0.666667
vt 0.000000 0.666667
vt 0.055556 0.333333
vt 0.944444 0.333333
vt 0.944444 0.666667
vt 0.055556 0.666667
vt 0.055556 1.000000
vt 0.055556 0.000000
vt 0.944444 0.000000
vt 0.944444 1.000000
s 0
f 1/1/1 2/2/1 6/3/1 5/4/1
f 2/5/2 7/6/2 8/7/2 6/8/2
f 7/2/3 3/1/3 4/4/3 8/3/3
f 3/6/4 1/5/4 5/8/4 4/7/4
f 2/9/5 1/10/5 3/11/5 7/12/5
f 8/12/6 4/11/6 5/10/6 6/9/6
o Room
v -6.000000 -3.000000 7.000000
v -6.000000 3.000000 7.000000
v -6.000000 -3.000000 -7.000000
v -6.000000 3.000000 -7.000000
v 6.000000 -3.000000 7.000000
v 6.000000 3.000000 7.000000
v 6.000000 -3.000000 -7.000000
v 6.000000 3.000000 -7.000000
v -0.829472 -2.986924 6.926419
v -0.819950 -0.041988 6.935757
v 0.634806 -0.041988 6.935757
v 0.625284 -2.986924 6.926419
v -5.399996 -3.000000 6.300002
v -5.400000 3.000000 6.300000
v -5.400000 -3.000000 -6.300000
v -5.400000 3.000000 -6.300000
v 5.399996 -3.000000 6.300002
v 5.400000 3.000000 6.300000
v 5.400000 -3.000000 -6.300000
v 5.400000 3.000000 -6.300000
v -0.829472 -2.986924 6.354905
v -0.819950 -0.041988 6.364243
v 0.634806 -0.041988 6.364243
v 0.625284 -2.986924 6.354905
vn -1.0000 -0.0000 -0.0000
vn -0.0000 -0.0000 -1.0000
vn 1.0000 -0.0000 -0.0000
vn 0.0130 -0.0011 0.9999
vn -0.0125 -0.0010 0.9999
vn -0.0000 -0.0211 0.9998
vn -0.0000 -0.0000 1.0000
vn 0.0134 0.0010 -0.9999
vn -0.0128 0.0011 -0.9999
vn -0.0000 -0.0211 -0.9998
vn -0.0000 -1.0000 -0.0000
vn 1.0000 -0.0032 -0.0000
vn -1.0000 0.0032 -0.0000
vt 0.000000 0.285714
vt 0.000000 0.714286
vt 1.000000 0.714286
vt 1.000000 0.285714
vt 0.071429 0.285714
vt 0.071429 0.714286
vt 0.928571 0.714286
vt 0.928571 0.285714
vt 0.440752 0.286648
vt 0.441432 0.497001
vt 0.545343 0.497001
vt 0.544663 0.286648
vt 0.050000 0.285714
vt 0.950000 0.285714
vt 0.950000 0.714286
vt 0.050000 0.714286
vt 0.114286 0.285714
vt 0.885714 0.285714
vt 0.885714 0.714286
vt 0.114286 0.714286
vt 0.114286 0.285714
vt 0.885714 0.285714
vt 0.545343 0.237118
vt 0.441432 0.237118
vt 0.441432 0.277941
vt 0.545343 0.277941
vt 0.004589 0.497001
vt 0.005256 0.286648
vt 0.046078 0.286648
vt 0.045411 0.497001
s 0
f 9/13/7 10/14/7 12/15/7 11/16/7
f 11/17/8 12/18/8 16/19/8 15/20/8
f 15/16/9 16/15/9 14/14/9 13/13/9
f 17/21/10 18/22/10 10/18/10 9/17/10
f 19/23/11 20/24/11 13/20/11 14/19/11
f 18/22/12 19/23/12 14/19/12 10/18/12
f 21/25/9 23/26/9 24/27/9 22/28/9
f 23/29/13 27/30/13 28/31/13 24/32/13
f 27/26/7 25/25/7 26/28/7 28/27/7
f 29/21/14 21/33/14 22/32/14 30/22/14
f 31/23/15 26/31/15 25/34/15 32/24/15
f 30/22/16 22/32/16 26/31/16 31/23/16
f 19/35/17 18/36/17 30/37/17 31/38/17
f 18/39/18 17/40/18 29/41/18 30/42/18
f 20/40/19 19/39/19 31/42/19 32/41/19
